<?xml version="1.0" encoding="UTF-8"?>
<!-- Created with Inkscape (http://www.inkscape.org/) -->
<svg width="48" height="48" version="1.1" viewBox="0 0 12.7 12.7" xmlns="http://www.w3.org/2000/svg" xmlns:cc="http://creativecommons.org/ns#" xmlns:dc="http://purl.org/dc/elements/1.1/" xmlns:rdf="http://www.w3.org/1999/02/22-rdf-syntax-ns#">
 <metadata>
  <rdf:RDF>
   <cc:Work rdf:about="">
    <dc:format>image/svg+xml</dc:format>
    <dc:type rdf:resource="http://purl.org/dc/dcmitype/StillImage"/>
    <dc:title/>
   </cc:Work>
  </rdf:RDF>
 </metadata>
 <path d="m10.092 10.092c2.0665-2.0666 2.0665-5.417 4e-6 -7.4835-2.0665-2.0666-5.417-2.0666-7.4835 0-2.0665 2.0665-2.0665 5.417 4e-6 7.4835 2.0665 2.0666 5.417 2.0666 7.4835 1e-5z" fill="#500" stroke-width=".0058431"/>
 <path d="m3.6373 3.6374c-1.4983 1.4982-1.4982 3.9272-1.18e-5 5.4254 1.4982 1.4982 3.9273 1.4982 5.4255-1.41e-5 1.4982-1.4982 1.4982-3.9272 1.19e-5 -5.4254-1.4982-1.4982-3.9273-1.4982-5.4255 1.41e-5z" fill="#464646" stroke-width=".0042361"/>
 <path d="m7.7064 7.7064c0.74915-0.74913 0.74912-1.9636 5.9e-6 -2.7127-0.74911-0.7491-1.9637-0.74911-2.7128 7e-6 -0.74915 0.74913-0.74912 1.9636-5.9e-6 2.7127 0.74911 0.7491 1.9637 0.74911 2.7128-7e-6z" fill="#a7a7a7" stroke-width=".0021181"/>
</svg>
