<?xml version="1.0" encoding="UTF-8"?>
<!-- Created with Inkscape (http://www.inkscape.org/) -->
<svg width="48" height="48" version="1.1" viewBox="0 0 12.7 12.7" xmlns="http://www.w3.org/2000/svg" xmlns:cc="http://creativecommons.org/ns#" xmlns:dc="http://purl.org/dc/elements/1.1/" xmlns:rdf="http://www.w3.org/1999/02/22-rdf-syntax-ns#">
 <defs>
  <clipPath id="clipPath29">
   <path d="m10.225-6.4403c0-2.1188-1.7176-3.8364-3.8364-3.8364s-3.8364 1.7176-3.8364 3.8364c-1e-5 2.1188 1.7176 3.8364 3.8364 3.8364s3.8364-1.7176 3.8364-3.8364z" fill="#500" stroke-width=".0042362"/>
  </clipPath>
 </defs>
 <metadata>
  <rdf:RDF>
   <cc:Work rdf:about="">
    <dc:format>image/svg+xml</dc:format>
    <dc:type rdf:resource="http://purl.org/dc/dcmitype/StillImage"/>
    <dc:title/>
   </cc:Work>
  </rdf:RDF>
 </metadata>
 <path d="m10.092 10.09c2.0665-2.0666 2.0665-5.417 4e-6 -7.4835-2.0665-2.0666-5.417-2.0666-7.4835 0-2.0665 2.0665-2.0665 5.417 4e-6 7.4835 2.0665 2.0666 5.417 2.0666 7.4835 1e-5z" fill="#500" stroke-width=".0058431"/>
 <path d="m7.7064 5.5236c0.74912-0.74912 0.74912-1.9637 0-2.7128-0.74912-0.74912-1.9637-0.74912-2.7128 0-0.74912 0.74912-0.74912 1.9637 0 2.7128 0.74912 0.74912 1.9637 0.74912 2.7128 0z" fill="#a7a7a7" stroke-width=".0021181"/>
 <rect transform="rotate(90 -.044807 -.04524)" x="6.35" y="-12.7" width="6.35" height="12.7" ry="0" clip-path="url(#clipPath29)" fill="#464646" stroke-width=".48117"/>
</svg>
